<svg width="99" height="96" viewBox="0 0 99 96" fill="none" xmlns="http://www.w3.org/2000/svg">
<ellipse cx="49.5" cy="48" rx="49.5" ry="48" fill="white"/>
<path d="M81.8012 36.4902C82.9003 36.5999 83.8802 35.7978 83.9899 34.6987L85.7776 16.7877C85.8873 15.6886 85.0852 14.7087 83.9861 14.599C82.887 14.4893 81.9071 15.2913 81.7974 16.3904L80.2084 32.3113L64.2875 30.7223C63.1883 30.6126 62.2084 31.4147 62.0987 32.5138C61.989 33.6129 62.7911 34.5928 63.8902 34.7025L81.8012 36.4902ZM18.252 35.4646C25.5487 22.2108 35.3351 15.4489 45.8699 15.1923C56.4806 14.934 68.5683 21.2478 80.4522 35.7669L83.5475 33.2333C71.2633 18.225 58.1135 10.893 45.7725 11.1935C33.3557 11.4959 22.4762 19.4976 14.748 33.5354L18.252 35.4646Z" fill="black"/>
<path d="M21.1085 59.3709C20.0055 59.3111 19.0629 60.1566 19.003 61.2596L18.0275 79.2331C17.9676 80.3361 18.8132 81.2787 19.9161 81.3386C21.0191 81.3984 21.9617 80.5529 22.0216 79.4499L22.8887 63.4734L38.8652 64.3406C39.9682 64.4004 40.9108 63.5548 40.9707 62.4519C41.0305 61.3489 40.1849 60.4063 39.082 60.3464L21.1085 59.3709ZM19.5113 62.7035C30.2351 74.6581 41.0522 81.1767 51.7749 81.2501C62.5737 81.3241 72.5674 74.8678 81.612 62.5518L78.388 60.1841C69.724 71.982 60.7902 77.3118 51.8023 77.2502C42.7384 77.1881 32.91 71.6497 22.4888 60.0325L19.5113 62.7035Z" fill="black"/>
</svg>
