<svg width="223" height="95" viewBox="0 0 223 95" fill="none" xmlns="http://www.w3.org/2000/svg">
<rect width="223" height="95" rx="47.5" fill="#FFFBFB"/>
<path d="M76.679 37.9062C76.5464 36.6657 75.9877 35.6998 75.0028 35.0085C74.0275 34.3172 72.7585 33.9716 71.196 33.9716C70.0975 33.9716 69.1553 34.1373 68.3693 34.4688C67.5833 34.8002 66.982 35.25 66.5653 35.8182C66.1487 36.3864 65.9356 37.035 65.9261 37.7642C65.9261 38.3703 66.0634 38.8958 66.3381 39.3409C66.6222 39.786 67.0057 40.1648 67.4886 40.4773C67.9716 40.7803 68.5066 41.036 69.0938 41.2443C69.6809 41.4527 70.2727 41.6278 70.8693 41.7699L73.5966 42.4517C74.6951 42.7074 75.7509 43.053 76.7642 43.4886C77.7869 43.9242 78.7008 44.4735 79.5057 45.1364C80.3201 45.7992 80.964 46.5994 81.4375 47.5369C81.911 48.4744 82.1477 49.5729 82.1477 50.8324C82.1477 52.5369 81.7121 54.0379 80.8409 55.3352C79.9697 56.6231 78.7102 57.6316 77.0625 58.3608C75.4242 59.0805 73.4403 59.4403 71.1108 59.4403C68.8475 59.4403 66.8826 59.09 65.2159 58.3892C63.5587 57.6884 62.2614 56.6657 61.3239 55.321C60.3958 53.9763 59.8939 52.3381 59.8182 50.4062H65.0028C65.0786 51.4195 65.3911 52.2623 65.9403 52.9347C66.4896 53.607 67.2045 54.1089 68.0852 54.4403C68.9754 54.7718 69.9697 54.9375 71.0682 54.9375C72.214 54.9375 73.2178 54.767 74.0795 54.4261C74.9508 54.0758 75.6326 53.5928 76.125 52.9773C76.6174 52.3523 76.8684 51.6231 76.8778 50.7898C76.8684 50.0322 76.6458 49.4072 76.2102 48.9148C75.7746 48.4129 75.1638 47.9962 74.3778 47.6648C73.6013 47.3239 72.6922 47.0208 71.6506 46.7557L68.3409 45.9034C65.9451 45.2879 64.0511 44.3551 62.6591 43.1051C61.2765 41.8456 60.5852 40.1742 60.5852 38.0909C60.5852 36.3769 61.0492 34.8759 61.9773 33.5881C62.9148 32.3002 64.1884 31.3011 65.7983 30.5909C67.4081 29.8712 69.2311 29.5114 71.267 29.5114C73.3314 29.5114 75.1402 29.8712 76.6932 30.5909C78.2557 31.3011 79.482 32.2907 80.3722 33.5597C81.2623 34.8191 81.7216 36.268 81.75 37.9062H76.679ZM97.5135 37.1818V41.1591H84.9709V37.1818H97.5135ZM88.0675 31.9545H93.2095V52.4375C93.2095 53.1288 93.3137 53.6591 93.522 54.0284C93.7398 54.3883 94.0239 54.6345 94.3743 54.767C94.7247 54.8996 95.1129 54.9659 95.5391 54.9659C95.861 54.9659 96.1546 54.9422 96.4197 54.8949C96.6944 54.8475 96.9027 54.8049 97.0447 54.767L97.9112 58.7869C97.6366 58.8816 97.2436 58.9858 96.7322 59.0994C96.2304 59.2131 95.6148 59.2794 94.8857 59.2983C93.5978 59.3362 92.4377 59.142 91.4055 58.7159C90.3733 58.2803 89.5542 57.608 88.9482 56.6989C88.3516 55.7898 88.058 54.6534 88.0675 53.2898V31.9545ZM108.092 59.4403C106.71 59.4403 105.464 59.1941 104.357 58.7017C103.258 58.1998 102.387 57.4612 101.743 56.4858C101.108 55.5104 100.791 54.3078 100.791 52.8778C100.791 51.6468 101.018 50.6288 101.473 49.8239C101.928 49.0189 102.548 48.375 103.334 47.892C104.12 47.4091 105.005 47.0445 105.99 46.7983C106.984 46.5426 108.012 46.358 109.072 46.2443C110.351 46.1117 111.388 45.9934 112.183 45.8892C112.979 45.7756 113.556 45.6051 113.916 45.3778C114.286 45.1411 114.47 44.7765 114.47 44.2841V44.1989C114.47 43.1288 114.153 42.3002 113.518 41.7131C112.884 41.1259 111.97 40.8324 110.777 40.8324C109.518 40.8324 108.518 41.107 107.78 41.6562C107.051 42.2055 106.558 42.8542 106.303 43.6023L101.501 42.9205C101.88 41.5947 102.505 40.4867 103.376 39.5966C104.248 38.697 105.313 38.0246 106.572 37.5795C107.832 37.125 109.224 36.8977 110.749 36.8977C111.8 36.8977 112.846 37.0208 113.888 37.267C114.929 37.5133 115.881 37.9205 116.743 38.4886C117.605 39.0473 118.296 39.8097 118.817 40.7756C119.347 41.7415 119.612 42.9489 119.612 44.3977V59H114.669V56.0028H114.499C114.186 56.6089 113.746 57.1771 113.178 57.7074C112.619 58.2282 111.913 58.6496 111.061 58.9716C110.218 59.2841 109.229 59.4403 108.092 59.4403ZM109.428 55.6619C110.46 55.6619 111.355 55.4583 112.112 55.0511C112.87 54.6345 113.452 54.0852 113.859 53.4034C114.276 52.7216 114.484 51.9782 114.484 51.1733V48.6023C114.323 48.7348 114.049 48.858 113.661 48.9716C113.282 49.0852 112.856 49.1847 112.382 49.2699C111.909 49.3551 111.44 49.4309 110.976 49.4972C110.512 49.5634 110.109 49.6203 109.768 49.6676C109.001 49.7718 108.315 49.9422 107.709 50.179C107.103 50.4157 106.625 50.7472 106.274 51.1733C105.924 51.59 105.749 52.1297 105.749 52.7926C105.749 53.7396 106.094 54.4545 106.786 54.9375C107.477 55.4205 108.357 55.6619 109.428 55.6619ZM124.783 59V37.1818H129.768V40.8182H129.996C130.393 39.5587 131.075 38.5881 132.041 37.9062C133.017 37.215 134.129 36.8693 135.379 36.8693C135.663 36.8693 135.981 36.8835 136.331 36.9119C136.691 36.9309 136.989 36.964 137.226 37.0114V41.7415C137.008 41.6657 136.662 41.5994 136.189 41.5426C135.725 41.4763 135.275 41.4432 134.839 41.4432C133.902 41.4432 133.059 41.6468 132.311 42.054C131.572 42.4517 130.99 43.0057 130.564 43.7159C130.138 44.4261 129.925 45.2453 129.925 46.1733V59H124.783ZM152.709 37.1818V41.1591H140.166V37.1818H152.709ZM143.263 31.9545H148.405V52.4375C148.405 53.1288 148.509 53.6591 148.717 54.0284C148.935 54.3883 149.219 54.6345 149.57 54.767C149.92 54.8996 150.308 54.9659 150.734 54.9659C151.056 54.9659 151.35 54.9422 151.615 54.8949C151.89 54.8475 152.098 54.8049 152.24 54.767L153.107 58.7869C152.832 58.8816 152.439 58.9858 151.928 59.0994C151.426 59.2131 150.81 59.2794 150.081 59.2983C148.793 59.3362 147.633 59.142 146.601 58.7159C145.569 58.2803 144.75 57.608 144.143 56.6989C143.547 55.7898 143.253 54.6534 143.263 53.2898V31.9545Z" fill="black"/>
</svg>
